<svg width="200" height="200" viewBox="0 0 200 200" fill="none" xmlns="http://www.w3.org/2000/svg">
<g clip-path="url(#clip0_410_2931)">
<rect width="200" height="200" rx="20.7792" fill="#FFD451"/>
<path d="M113.7 6.91758C103.913 7.37233 93.6486 37.4998 89.7399 52.5067L67.9227 2.59741L8.84106 52.5067L79.5923 86.8406C58.6582 93.6429 1.59108 131.395 19.496 139.99C37.4008 148.585 67.0206 181.846 79.5923 197.403C75.1574 175.044 68.9486 130.11 79.5923 129.246C90.236 128.382 106.765 174.324 113.7 197.403C116.349 196.152 125.696 192.15 141.887 186.147C158.078 180.145 169.906 173.263 173.796 170.572C150.569 153.045 106.032 117.991 113.7 117.991C121.367 117.991 168.309 138.72 190.821 149.085C191.535 126.556 191.588 79.8828 186.086 73.4253C179.208 65.3534 113.7 90.0807 113.7 81.4972C113.7 74.6304 132.491 37.1398 141.887 19.2528C136.569 14.9516 123.486 6.46282 113.7 6.91758Z" fill="black"/>
<path d="M108.486 108.338C110.206 104.978 111.438 101.207 110.754 97.1776C109.946 92.4541 107.955 88.1628 103.315 86.4598C97.6979 84.3963 92.3694 85.8126 87.8096 89.9673C84.0438 93.4009 82.1927 97.8972 80.9643 102.678C80.0497 106.224 80.4979 109.7 81.9413 112.978C84.0061 117.687 88.3859 120.076 93.447 119.16C99.9869 117.971 104.835 114.208 108.498 108.335L108.486 108.338Z" fill="#FFD451"/>
</g>
<defs>
<clipPath id="clip0_410_2931">
<rect width="200" height="200" rx="20.7792" fill="white"/>
</clipPath>
</defs>
</svg>
