<svg width="203" height="203" viewBox="0 0 203 203" fill="none" xmlns="http://www.w3.org/2000/svg">
<g id="finances_minor">
<rect width="203" height="203" fill="white"/>
<path id="Icon" fill-rule="evenodd" clip-rule="evenodd" d="M95.8698 32.1547C99.2792 29.8818 103.721 29.8818 107.13 32.1547L168.03 72.7547C170.56 74.4415 172.201 77.1738 172.501 80.1998C172.8 83.2259 171.727 86.2269 169.577 88.3771L162.4 95.5543V142.104C168.333 144.357 172.55 150.095 172.55 156.818C172.55 165.506 165.506 172.55 156.818 172.55H46.1825C37.4937 172.55 30.45 165.506 30.45 156.818C30.45 150.095 34.6669 144.357 40.6001 142.104V95.5543L33.4229 88.3771C31.2727 86.2269 30.1998 83.2259 30.4995 80.1998C30.7991 77.1738 32.4397 74.4415 34.9698 72.7547L95.8698 32.1547ZM121.8 91.35C127.406 91.35 131.95 95.8943 131.95 101.5V131.95C131.95 137.556 127.406 142.1 121.8 142.1C116.194 142.1 111.65 137.556 111.65 131.95V101.5C111.65 95.8943 116.194 91.35 121.8 91.35ZM91.35 101.5C91.35 95.8943 86.8057 91.35 81.2 91.35C75.5943 91.35 71.05 95.8943 71.05 101.5V131.95C71.05 137.556 75.5943 142.1 81.2 142.1C86.8057 142.1 91.35 137.556 91.35 131.95V101.5Z" fill="#5C5F62"/>
</g>
</svg>
