<svg width="143" height="143" viewBox="0 0 143 143" fill="none" xmlns="http://www.w3.org/2000/svg">
<path fill-rule="evenodd" clip-rule="evenodd" d="M65.8698 2.15469C69.2792 -0.118233 73.7209 -0.118233 77.1303 2.15469L138.03 42.7547C140.56 44.4415 142.201 47.1738 142.501 50.1998C142.8 53.2259 141.727 56.2269 139.577 58.3771L132.4 65.5543V112.104C138.333 114.357 142.55 120.095 142.55 126.818C142.55 135.506 135.506 142.55 126.818 142.55H16.1825C7.49368 142.55 0.450001 135.506 0.450001 126.818C0.450001 120.095 4.66694 114.357 10.6001 112.104V65.5543L3.42292 58.3771C1.2727 56.2269 0.199813 53.2259 0.499453 50.1998C0.799093 47.1738 2.43969 44.4415 4.96985 42.7547L65.8698 2.15469ZM91.8 61.35C97.4057 61.35 101.95 65.8943 101.95 71.5V101.95C101.95 107.556 97.4057 112.1 91.8 112.1C86.1943 112.1 81.65 107.556 81.65 101.95V71.5C81.65 65.8943 86.1943 61.35 91.8 61.35ZM61.35 71.5C61.35 65.8943 56.8057 61.35 51.2 61.35C45.5943 61.35 41.05 65.8943 41.05 71.5V101.95C41.05 107.556 45.5943 112.1 51.2 112.1C56.8057 112.1 61.35 107.556 61.35 101.95V71.5Z" fill="#5C5F62"/>
</svg>
